{
	"patcher" : 	{
		"fileversion" : 1,
		"appversion" : 		{
			"major" : 8,
			"minor" : 6,
			"revision" : 0,
			"architecture" : "x64",
			"modernui" : 1
		}
,
		"classnamespace" : "box",
		"rect" : [ 2121.0, 117.0, 708.0, 776.0 ],
		"bglocked" : 0,
		"openinpresentation" : 0,
		"default_fontsize" : 12.0,
		"default_fontface" : 0,
		"default_fontname" : "Arial",
		"gridonopen" : 2,
		"gridsize" : [ 15.0, 15.0 ],
		"gridsnaponopen" : 1,
		"objectsnaponopen" : 1,
		"statusbarvisible" : 2,
		"toolbarvisible" : 1,
		"lefttoolbarpinned" : 0,
		"toptoolbarpinned" : 0,
		"righttoolbarpinned" : 0,
		"bottomtoolbarpinned" : 0,
		"toolbars_unpinned_last_save" : 0,
		"tallnewobj" : 0,
		"boxanimatetime" : 200,
		"enablehscroll" : 1,
		"enablevscroll" : 1,
		"devicewidth" : 0.0,
		"description" : "",
		"digest" : "",
		"tags" : "",
		"style" : "",
		"subpatcher_template" : "Untitled",
		"assistshowspatchername" : 0,
		"boxes" : [ 			{
				"box" : 				{
					"id" : "obj-2",
					"linecount" : 2,
					"maxclass" : "comment",
					"numinlets" : 1,
					"numoutlets" : 0,
					"patching_rect" : [ 8.570821523666382, 10.0, 150.0, 33.0 ],
					"text" : "// By Mark Meeuwenoord 2024"
				}

			}
, 			{
				"box" : 				{
					"id" : "obj-470",
					"maxclass" : "message",
					"numinlets" : 2,
					"numoutlets" : 1,
					"outlettype" : [ "" ],
					"patching_rect" : [ 97.570821523666382, 336.0, 61.0, 22.0 ],
					"text" : "get body::"
				}

			}
, 			{
				"box" : 				{
					"id" : "obj-471",
					"maxclass" : "message",
					"numinlets" : 2,
					"numoutlets" : 1,
					"outlettype" : [ "" ],
					"patching_rect" : [ 97.570821523666382, 120.5, 29.5, 22.0 ],
					"text" : "url"
				}

			}
, 			{
				"box" : 				{
					"id" : "obj-472",
					"maxclass" : "button",
					"numinlets" : 1,
					"numoutlets" : 1,
					"outlettype" : [ "bang" ],
					"parameter_enable" : 0,
					"patching_rect" : [ 59.0, 356.0730841755867, 24.0, 24.0 ]
				}

			}
, 			{
				"box" : 				{
					"id" : "obj-473",
					"linecount" : 2,
					"maxclass" : "comment",
					"numinlets" : 1,
					"numoutlets" : 0,
					"patching_rect" : [ 97.570821523666382, 77.0, 150.0, 33.0 ],
					"text" : "Basic  web REST API starter"
				}

			}
, 			{
				"box" : 				{
					"id" : "obj-474",
					"maxclass" : "message",
					"numinlets" : 2,
					"numoutlets" : 1,
					"outlettype" : [ "" ],
					"patching_rect" : [ 145.677430599927902, 255.192406266927719, 141.0, 22.0 ]
				}

			}
, 			{
				"box" : 				{
					"id" : "obj-475",
					"maxclass" : "newobj",
					"numinlets" : 1,
					"numoutlets" : 1,
					"outlettype" : [ "" ],
					"patching_rect" : [ 136.070821523666382, 120.5, 66.0, 22.0 ],
					"text" : "sprintf {url}"
				}

			}
, 			{
				"box" : 				{
					"id" : "obj-476",
					"maxclass" : "newobj",
					"numinlets" : 1,
					"numoutlets" : 2,
					"outlettype" : [ "bang", "" ],
					"patching_rect" : [ 97.570821523666382, 300.92145511507988, 189.10660907626152, 22.0 ],
					"text" : "t b l"
				}

			}
, 			{
				"box" : 				{
					"id" : "obj-477",
					"maxclass" : "message",
					"numinlets" : 2,
					"numoutlets" : 1,
					"outlettype" : [ "" ],
					"patching_rect" : [ 97.570821523666382, 186.420751303434372, 91.0, 22.0 ],
					"text" : "set url $1, bang"
				}

			}
, 			{
				"box" : 				{
					"id" : "obj-478",
					"maxclass" : "dict.view",
					"numinlets" : 1,
					"numoutlets" : 0,
					"patching_rect" : [ 97.431532502174377, 424.167424499988556, 183.934640109539032, 137.146661698818207 ]
				}

			}
, 			{
				"box" : 				{
					"id" : "obj-479",
					"maxclass" : "newobj",
					"numinlets" : 2,
					"numoutlets" : 5,
					"outlettype" : [ "dictionary", "", "", "", "" ],
					"patching_rect" : [ 97.431532502174377, 387.834851682186127, 50.5, 22.0 ],
					"saved_object_attributes" : 					{
						"embed" : 0,
						"legacy" : 1,
						"parameter_enable" : 0,
						"parameter_mappable" : 0
					}
,
					"text" : "dict"
				}

			}
, 			{
				"box" : 				{
					"id" : "obj-480",
					"maxclass" : "newobj",
					"numinlets" : 1,
					"numoutlets" : 2,
					"outlettype" : [ "dictionary", "" ],
					"patching_rect" : [ 97.570821523666382, 255.192406266927719, 45.0, 22.0 ],
					"text" : "maxurl"
				}

			}
, 			{
				"box" : 				{
					"data" : 					{
						"http_method" : "get",
						"url" : "",
						"parse_type" : "json"
					}
,
					"fontname" : "Arial",
					"fontsize" : 13.0,
					"id" : "obj-481",
					"maxclass" : "newobj",
					"numinlets" : 2,
					"numoutlets" : 5,
					"outlettype" : [ "dictionary", "", "", "", "" ],
					"patching_rect" : [ 97.570821523666382, 220.546735137701035, 99.0, 23.0 ],
					"saved_object_attributes" : 					{
						"embed" : 1,
						"legacy" : 1,
						"parameter_enable" : 0,
						"parameter_mappable" : 0
					}
,
					"text" : "dict @embed 1"
				}

			}
 ],
		"lines" : [ 			{
				"patchline" : 				{
					"destination" : [ "obj-477", 0 ],
					"source" : [ "obj-471", 0 ]
				}

			}
, 			{
				"patchline" : 				{
					"destination" : [ "obj-479", 0 ],
					"source" : [ "obj-472", 0 ]
				}

			}
, 			{
				"patchline" : 				{
					"destination" : [ "obj-477", 0 ],
					"source" : [ "obj-475", 0 ]
				}

			}
, 			{
				"patchline" : 				{
					"destination" : [ "obj-470", 0 ],
					"source" : [ "obj-476", 0 ]
				}

			}
, 			{
				"patchline" : 				{
					"destination" : [ "obj-479", 0 ],
					"midpoints" : [ 277.177430599927902, 380.878153398633003, 106.931532502174377, 380.878153398633003 ],
					"source" : [ "obj-476", 1 ]
				}

			}
, 			{
				"patchline" : 				{
					"destination" : [ "obj-481", 0 ],
					"source" : [ "obj-477", 0 ]
				}

			}
, 			{
				"patchline" : 				{
					"destination" : [ "obj-478", 0 ],
					"source" : [ "obj-479", 0 ]
				}

			}
, 			{
				"patchline" : 				{
					"destination" : [ "obj-474", 1 ],
					"source" : [ "obj-480", 1 ]
				}

			}
, 			{
				"patchline" : 				{
					"destination" : [ "obj-476", 0 ],
					"source" : [ "obj-480", 0 ]
				}

			}
, 			{
				"patchline" : 				{
					"destination" : [ "obj-480", 0 ],
					"source" : [ "obj-481", 0 ]
				}

			}
 ],
		"dependency_cache" : [  ],
		"autosave" : 0
	}

}
